<svg width="115" height="52" viewBox="0 0 115 52" fill="none" xmlns="http://www.w3.org/2000/svg">
<g clip-path="url(#clip0_3425_1723)">
<path fill-rule="evenodd" clip-rule="evenodd" d="M0 46.9508V21.193L115.268 5V30.853L0 46.9508ZM103.424 12.2599L100.744 17.5749L98.0957 13.0118L91.6005 13.9295L97.8102 21.9542V23.7578L89.6517 24.9117V14.2027L83.8065 15.0302V29.6575L97.8102 27.6789L102.749 26.9844L103.682 26.8488V21.1252L109.915 11.3428L103.424 12.2599ZM76.2298 24.2753C76.2298 24.2753 76.0997 22.7024 76.0997 21.6425V21.6415V16.129L81.8148 15.3232V29.9521L75.7111 30.8139L70.2553 23.4224C70.2553 23.4224 70.3838 24.9952 70.3838 26.0545V31.567L64.6676 32.3743V17.7443L71.033 16.8452L76.2298 24.2753ZM57.3726 18.7801L56.8048 18.8598V31.5047L51.4171 19.62L44.9204 20.5381L39.5021 34.0131L36.8673 30.7506L36.8804 30.7424C37.6714 30.244 39.8537 28.869 39.8537 25.9183C39.8537 24.3279 38.9456 23.1841 37.6471 22.6246C36.3457 22.065 34.657 21.9886 32.4493 22.2975L24.6545 23.3998V38.0298L30.5261 37.1997V32.3238L31.2807 32.2165L34.1394 36.6906L38.6852 36.045L40.8935 35.7335L44.7905 35.1855L45.4667 33.0326L50.5858 32.3115L51.2878 34.2693L56.8045 33.4901V33.4921L62.6769 32.6618V18.0286L57.3723 18.7755V18.7777L57.3726 18.7801ZM33.2816 28.0737C33.0487 28.2583 32.6323 28.4225 31.9837 28.5125L30.5021 28.7227V26.1773L31.9837 25.9706C32.6323 25.8783 33.0226 25.9275 33.2816 26.0613L33.2929 26.0661C33.5534 26.1768 33.9316 26.3375 33.9316 26.968C33.9316 27.6008 33.5663 27.8665 33.2823 28.0732L33.2816 28.0737ZM46.7143 29.1882L48.038 25.0802L49.3647 28.8146L46.7135 29.1886L46.7143 29.1882ZM20.1075 30.9961C21.2778 30.4504 22.6283 29.0929 22.6283 27.3966C22.6283 25.6989 21.2778 24.8313 19.9779 24.591C18.6798 24.3506 16.9907 24.4845 15.4315 24.7018L6.33032 25.9787V29.4348L8.02637 29.2045V36.9207L6.33032 37.1508V40.6074L16.861 39.1283C18.5502 38.8917 20.368 38.3181 21.5354 37.515C22.7055 36.7166 23.5404 35.6439 23.5404 33.9484C23.5404 32.252 22.1853 31.1703 20.1065 30.9975L20.1075 30.9961ZM13.8723 28.3788L15.0419 28.2132L15.0487 28.2123C15.6944 28.1217 15.9532 28.0855 16.3408 28.2431C16.7306 28.3997 16.861 28.6367 16.861 29.018C16.861 29.3774 16.7306 29.6493 16.3408 29.9193C15.9519 30.1847 15.6926 30.2427 15.0419 30.3345L13.8723 30.4983V28.3788ZM17.1213 35.2771C16.7309 35.5442 16.4716 35.6453 15.8224 35.7366L13.8727 36.0107V33.6793L15.8224 33.4061C16.4716 33.3127 16.731 33.3183 17.1213 33.4749C17.5094 33.6307 17.6407 33.9326 17.6407 34.313C17.6407 34.6707 17.5093 35.0076 17.1206 35.2766L17.1213 35.2771Z" fill="#DCDCDC"/>
</g>
<defs>
<clipPath id="clip0_3425_1723">
<rect width="115" height="52" fill="white"/>
</clipPath>
</defs>
</svg>
